<svg width="32" height="32" viewBox="0 0 32 32" fill="none" xmlns="http://www.w3.org/2000/svg">
    <g filter="url(#filter0_d_82_952)">
        <path
            d="M5.93835 5.51991V25.7103L14.6277 21.1599C15.0602 20.9333 15.5414 20.8148 16.03 20.8148C16.5186 20.8148 16.9999 20.9333 17.4324 21.1599L26.1217 25.7089V5.51991H5.93835ZM5.54516 3.82104H26.5149C26.8625 3.82104 27.1958 3.95873 27.4416 4.2038C27.6874 4.44888 27.8255 4.78127 27.8255 5.12786V27.4392C27.8253 27.5515 27.796 27.6619 27.7406 27.7596C27.6851 27.8574 27.6053 27.9393 27.5089 27.9973C27.4125 28.0554 27.3027 28.0877 27.1901 28.0911C27.0775 28.0945 26.9659 28.0689 26.8661 28.0168L16.6394 22.6641C16.4515 22.5656 16.2423 22.5142 16.03 22.5142C15.8177 22.5142 15.6086 22.5656 15.4206 22.6641L5.19392 28.0168C5.09423 28.0688 4.98278 28.0944 4.87029 28.0911C4.75781 28.0877 4.64808 28.0556 4.55169 27.9977C4.4553 27.9398 4.37548 27.8581 4.31994 27.7605C4.26439 27.6629 4.23499 27.5527 4.23456 27.4405V5.12786C4.23456 4.78127 4.37264 4.44888 4.61843 4.2038C4.86421 3.95873 5.19757 3.82104 5.54516 3.82104Z"
            fill="white" />
        <path
            d="M5.93768 5.521V25.7113L14.627 21.161C15.0595 20.9344 15.5408 20.8159 16.0294 20.8159C16.5179 20.8159 16.9992 20.9344 17.4317 21.161L26.121 25.71V5.521H5.93768Z"
            fill="white" fill-opacity="0.5" />
    </g>
    <defs>
        <filter id="filter0_d_82_952" x="-0.765442" y="0.821045" width="33.5909" height="34.2703"
            filterUnits="userSpaceOnUse" color-interpolation-filters="sRGB">
            <feFlood flood-opacity="0" result="BackgroundImageFix" />
            <feColorMatrix in="SourceAlpha" type="matrix"
                values="0 0 0 0 0 0 0 0 0 0 0 0 0 0 0 0 0 0 127 0" result="hardAlpha" />
            <feOffset dy="2" />
            <feGaussianBlur stdDeviation="2.5" />
            <feColorMatrix type="matrix"
                values="0 0 0 0 0.247059 0 0 0 0 0.278431 0 0 0 0 0.301961 0 0 0 0.15 0" />
            <feBlend mode="normal" in2="BackgroundImageFix" result="effect1_dropShadow_82_952" />
            <feBlend mode="normal" in="SourceGraphic" in2="effect1_dropShadow_82_952" result="shape" />
        </filter>
    </defs>
</svg>