<svg width="40" height="40" viewBox="0 0 40 40" fill="none" xmlns="http://www.w3.org/2000/svg">
    <circle cx="20" cy="20" r="19.2593" fill="#FF4A4D" stroke="black" stroke-width="1.48148" />
    <path
        d="M20.7316 25.2978V24.3816C20.7316 23.7086 20.873 23.0894 21.1557 22.5238C21.4442 21.9583 21.8627 21.503 22.4113 21.158C22.9598 20.813 23.6244 20.6405 24.4048 20.6405C25.2079 20.6405 25.8809 20.813 26.4239 21.158C26.9668 21.4973 27.3768 21.9498 27.6539 22.5153C27.9367 23.0809 28.0781 23.703 28.0781 24.3816V25.2978C28.0781 25.9708 27.9367 26.5901 27.6539 27.1557C27.3712 27.7212 26.9555 28.1765 26.4069 28.5215C25.864 28.8665 25.1966 29.039 24.4048 29.039C23.6131 29.039 22.9429 28.8665 22.3943 28.5215C21.8457 28.1765 21.43 27.7212 21.1473 27.1557C20.8701 26.5901 20.7316 25.9708 20.7316 25.2978ZM22.9457 24.3816V25.2978C22.9457 25.7446 23.0532 26.1547 23.2681 26.5279C23.483 26.9012 23.8619 27.0878 24.4048 27.0878C24.9534 27.0878 25.3295 26.904 25.5331 26.5364C25.7424 26.1631 25.847 25.7503 25.847 25.2978V24.3816C25.847 23.9292 25.748 23.5164 25.5501 23.1431C25.3521 22.7642 24.9704 22.5747 24.4048 22.5747C23.8732 22.5747 23.4971 22.7642 23.2766 23.1431C23.056 23.5164 22.9457 23.9292 22.9457 24.3816ZM11.9005 15.3554V14.4393C11.9005 13.7606 12.0447 13.1385 12.3331 12.5729C12.6216 12.0074 13.0401 11.5549 13.5887 11.2156C14.1372 10.8706 14.8018 10.6981 15.5822 10.6981C16.3797 10.6981 17.0498 10.8706 17.5928 11.2156C18.1414 11.5549 18.5542 12.0074 18.8313 12.5729C19.1084 13.1385 19.247 13.7606 19.247 14.4393V15.3554C19.247 16.0341 19.1056 16.6562 18.8228 17.2218C18.5457 17.7817 18.1329 18.2313 17.5843 18.5706C17.0357 18.9099 16.3683 19.0796 15.5822 19.0796C14.7848 19.0796 14.1118 18.9099 13.5632 18.5706C13.0203 18.2313 12.6074 17.7788 12.3247 17.2133C12.0419 16.6477 11.9005 16.0285 11.9005 15.3554ZM14.1316 14.4393V15.3554C14.1316 15.8079 14.2362 16.2207 14.4455 16.594C14.6604 16.9616 15.0393 17.1454 15.5822 17.1454C16.1252 17.1454 16.4984 16.9616 16.702 16.594C16.9113 16.2207 17.0159 15.8079 17.0159 15.3554V14.4393C17.0159 13.9868 16.9169 13.574 16.719 13.2007C16.521 12.8218 16.1421 12.6323 15.5822 12.6323C15.045 12.6323 14.6689 12.8218 14.454 13.2007C14.239 13.5796 14.1316 13.9925 14.1316 14.4393ZM12.8676 28.5554L24.812 11.1817H26.9328L14.9884 28.5554H12.8676Z"
        fill="white" />
</svg>
    