<svg width="40px" height="40px" viewBox="0 0 63 32" fill="none" xmlns="http://www.w3.org/2000/svg">
    <rect x="9.44641" y="0.739502" width="25.862" height="21.0129" fill="#F1F0F1" />
    <path
        d="M53.8496 16.4279H50.4742C47.6695 16.4279 47.7171 19.8983 50.4742 19.8983H53.8496V16.4279Z"
        fill="#D9D756" />
    <path
        d="M49.9513 13.0525H38.9694H35.7367V22.6557H40.776H53.8496V19.8983H50.4742C47.7171 19.8983 47.6695 16.4279 50.4742 16.4279H53.8496V14.5263C53.8393 13.5805 53.54 13.3 52.7086 13.0525H49.9513Z"
        fill="#D9566C" />
    <path d="M38.9694 4.63783H35.7367V13.0525H38.9694V4.63783Z" fill="#D95658" />
    <path
        d="M48.1923 1.69031H35.7367V4.63783H38.9694H46.9562H48.1923C49.9513 4.63783 49.7331 1.63157 48.1923 1.69031Z"
        fill="#566CD9" />
    <path
        d="M9.44679 25.7458H53.8496H54.3131C56.1674 25.7458 56.0723 22.6557 54.3131 22.6557H53.8496H40.776H35.7367H9.44679H8.95944C6.96291 22.6557 6.96289 25.7458 8.95944 25.7458H9.44679Z"
        fill="#566CD9" />
    <path
        d="M35.7367 22.6557V13.0525M35.7367 22.6557H40.776M35.7367 22.6557H9.44679M9.44679 22.6557V0.739502H35.7367V1.69031M9.44679 22.6557H40.776M9.44679 22.6557C9.44679 22.6557 10.956 22.6557 8.95944 22.6557M9.44679 22.6557H8.95944M53.8496 22.6557V19.8983M53.8496 22.6557H40.776M53.8496 22.6557C53.8496 22.6557 52.5539 22.6557 54.3131 22.6557M53.8496 22.6557H54.3131M53.8496 25.7458H9.44679M53.8496 25.7458C53.8496 25.7458 52.4588 25.7458 54.3131 25.7458M53.8496 25.7458H54.3131M9.44679 25.7458C9.44679 25.7458 10.956 25.7458 8.95944 25.7458M9.44679 25.7458H8.95944M35.7367 1.69031H48.1923C49.7331 1.63157 49.9513 4.63783 48.1923 4.63783M35.7367 1.69031V4.63783M48.1923 4.63783C46.4333 4.63783 46.9562 4.63783 46.9562 4.63783M48.1923 4.63783H46.9562M35.7367 4.63783H38.9694M35.7367 4.63783V13.0525M38.9694 4.63783H46.9562M38.9694 4.63783V13.0525M38.9694 13.0525H49.9513M38.9694 13.0525H35.7367M49.9513 13.0525L46.9562 4.63783M49.9513 13.0525H52.7086C53.54 13.3 53.8393 13.5805 53.8496 14.5263V16.4279M53.8496 16.4279C53.8496 16.4279 53.2789 16.4279 50.4742 16.4279M53.8496 16.4279V19.8983M53.8496 16.4279H50.4742M50.4742 16.4279C47.6695 16.4279 47.7171 19.8983 50.4742 19.8983M50.4742 19.8983C53.2313 19.8983 53.8496 19.8983 53.8496 19.8983M50.4742 19.8983H53.8496M40.776 16.4279H42.6776M54.3131 22.6557C56.0723 22.6557 56.1674 25.7458 54.3131 25.7458M8.95944 22.6557C6.96291 22.6557 6.96289 25.7458 8.95944 25.7458"
        stroke="black" stroke-width="0.8" stroke-linecap="round" stroke-linejoin="round" />
    <path
        d="M20.8057 26.507C20.8057 28.5024 19.1881 30.1201 17.1927 30.1201C15.1972 30.1201 13.5796 28.5024 13.5796 26.507C13.5796 24.5115 15.1972 22.8939 17.1927 22.8939C19.1881 22.8939 20.8057 24.5115 20.8057 26.507Z"
        fill="#D0D3D2" stroke="black" stroke-width="2.28194" />
    <path
        d="M49.5089 26.507C49.5089 28.5024 47.8912 30.1201 45.8958 30.1201C43.9003 30.1201 42.2827 28.5024 42.2827 26.507C42.2827 24.5115 43.9003 22.8939 45.8958 22.8939C47.8912 22.8939 49.5089 24.5115 49.5089 26.507Z"
        fill="#D0D3D2" stroke="black" stroke-width="2.28194" />
    <path
        d="M12.7279 5.48411H13.9725L15.1708 7.74742H15.2222L16.4205 5.48411H17.6651L15.7482 8.88164V10.7395H14.6448V8.88164L12.7279 5.48411ZM20.4897 9.06127V6.79796H21.5829V10.7395H20.5334V10.0236H20.4923C20.4033 10.2545 20.2554 10.4401 20.0484 10.5804C19.8431 10.7207 19.5925 10.7908 19.2965 10.7908C19.033 10.7908 18.8012 10.7309 18.6011 10.6112C18.4009 10.4914 18.2444 10.3212 18.1315 10.1005C18.0203 9.87986 17.9638 9.61555 17.9621 9.30761V6.79796H19.0553V9.11259C19.057 9.34525 19.1194 9.52915 19.2426 9.6643C19.3658 9.79945 19.5309 9.86703 19.7379 9.86703C19.8696 9.86703 19.9928 9.83709 20.1074 9.77721C20.222 9.71563 20.3144 9.62496 20.3845 9.5052C20.4564 9.38545 20.4915 9.23747 20.4897 9.06127ZM22.4573 10.7395V6.79796H23.5171V7.48568H23.5582C23.63 7.24104 23.7506 7.05628 23.92 6.9314C24.0893 6.8048 24.2844 6.74151 24.5051 6.74151C24.5598 6.74151 24.6188 6.74493 24.6821 6.75177C24.7454 6.75861 24.801 6.76802 24.8489 6.78V7.74999C24.7976 7.73459 24.7266 7.7209 24.6359 7.70893C24.5453 7.69695 24.4623 7.69097 24.387 7.69097C24.2262 7.69097 24.0825 7.72604 23.9559 7.79618C23.831 7.86461 23.7318 7.96041 23.6582 8.08358C23.5864 8.20675 23.5505 8.34875 23.5505 8.50955V10.7395H22.4573ZM27.7082 6.79796V7.61912H25.3346V6.79796H27.7082ZM25.8734 5.85363H26.9666V9.5283C26.9666 9.62923 26.982 9.70793 27.0128 9.76438C27.0436 9.81912 27.0863 9.85762 27.1411 9.87986C27.1975 9.9021 27.2626 9.91322 27.3361 9.91322C27.3874 9.91322 27.4388 9.90894 27.4901 9.90038C27.5414 9.89012 27.5808 9.88242 27.6081 9.87729L27.7801 10.6907C27.7253 10.7079 27.6483 10.7275 27.5491 10.7498C27.4499 10.7737 27.3293 10.7883 27.1873 10.7934C26.9238 10.8037 26.6929 10.7686 26.4944 10.6882C26.2977 10.6078 26.1446 10.4829 26.0351 10.3135C25.9256 10.1442 25.8717 9.93032 25.8734 9.672V5.85363ZM29.5443 10.8139C29.2928 10.8139 29.0687 10.7703 28.8719 10.683C28.6752 10.5941 28.5195 10.4632 28.4049 10.2904C28.292 10.1159 28.2355 9.89867 28.2355 9.63864C28.2355 9.41967 28.2757 9.23576 28.3561 9.08693C28.4365 8.93809 28.546 8.81834 28.6846 8.72767C28.8232 8.637 28.9806 8.56858 29.1568 8.52239C29.3347 8.4762 29.5212 8.44369 29.7162 8.42487C29.9454 8.40092 30.1302 8.37868 30.2705 8.35815C30.4107 8.33591 30.5125 8.30341 30.5758 8.26064C30.6391 8.21787 30.6708 8.15458 30.6708 8.07075V8.05535C30.6708 7.89283 30.6195 7.76709 30.5168 7.67814C30.4159 7.58918 30.2722 7.5447 30.0857 7.5447C29.889 7.5447 29.7324 7.58832 29.6161 7.67557C29.4998 7.76111 29.4228 7.86888 29.3852 7.9989L28.3741 7.91678C28.4254 7.67728 28.5264 7.47028 28.6769 7.29579C28.8275 7.11958 29.0216 6.98443 29.2594 6.89034C29.4989 6.79454 29.7761 6.74664 30.0908 6.74664C30.3098 6.74664 30.5194 6.7723 30.7195 6.82362C30.9214 6.87494 31.1002 6.95449 31.2558 7.06227C31.4132 7.17005 31.5373 7.30862 31.6279 7.47798C31.7186 7.64563 31.7639 7.84664 31.7639 8.08101V10.7395H30.7272V10.1929H30.6964C30.6331 10.3161 30.5485 10.4247 30.4424 10.5188C30.3363 10.6112 30.2089 10.6839 30.06 10.7369C29.9112 10.7883 29.7393 10.8139 29.5443 10.8139ZM29.8573 10.0595C30.0181 10.0595 30.1601 10.0278 30.2833 9.96454C30.4065 9.89953 30.5031 9.81228 30.5733 9.70279C30.6434 9.59331 30.6785 9.46928 30.6785 9.33071V8.91243C30.6443 8.93467 30.5972 8.9552 30.5373 8.97402C30.4792 8.99113 30.4133 9.00738 30.3397 9.02278C30.2662 9.03646 30.1926 9.04929 30.1191 9.06127C30.0455 9.07153 29.9788 9.08094 29.9189 9.08949C29.7906 9.10831 29.6785 9.13825 29.5827 9.17931C29.4869 9.22037 29.4125 9.27597 29.3595 9.34611C29.3065 9.41454 29.2799 9.50007 29.2799 9.60272C29.2799 9.75155 29.3338 9.86531 29.4416 9.94401C29.5511 10.021 29.6897 10.0595 29.8573 10.0595ZM12.4678 17.7395V12.4841H13.5789V14.6525H15.8345V12.4841H16.9431V17.7395H15.8345V15.5686H13.5789V17.7395H12.4678ZM19.6195 17.8165C19.2209 17.8165 18.8762 17.7318 18.5854 17.5624C18.2963 17.3914 18.073 17.1536 17.9156 16.8491C17.7582 16.5428 17.6795 16.1879 17.6795 15.7841C17.6795 15.377 17.7582 15.0211 17.9156 14.7166C18.073 14.4104 18.2963 14.1726 18.5854 14.0032C18.8762 13.8322 19.2209 13.7466 19.6195 13.7466C20.0181 13.7466 20.362 13.8322 20.6511 14.0032C20.9419 14.1726 21.166 14.4104 21.3234 14.7166C21.4808 15.0211 21.5595 15.377 21.5595 15.7841C21.5595 16.1879 21.4808 16.5428 21.3234 16.8491C21.166 17.1536 20.9419 17.3914 20.6511 17.5624C20.362 17.7318 20.0181 17.8165 19.6195 17.8165ZM19.6246 16.9697C19.806 16.9697 19.9574 16.9183 20.0788 16.8157C20.2003 16.7113 20.2918 16.5694 20.3534 16.3897C20.4167 16.2101 20.4484 16.0057 20.4484 15.7764C20.4484 15.5472 20.4167 15.3428 20.3534 15.1631C20.2918 14.9835 20.2003 14.8415 20.0788 14.7372C19.9574 14.6328 19.806 14.5806 19.6246 14.5806C19.4416 14.5806 19.2876 14.6328 19.1627 14.7372C19.0396 14.8415 18.9463 14.9835 18.883 15.1631C18.8215 15.3428 18.7907 15.5472 18.7907 15.7764C18.7907 16.0057 18.8215 16.2101 18.883 16.3897C18.9463 16.5694 19.0396 16.7113 19.1627 16.8157C19.2876 16.9183 19.4416 16.9697 19.6246 16.9697ZM22.2703 17.7395V13.798H23.3121V14.4934H23.3583C23.4404 14.2624 23.5773 14.0802 23.7689 13.9468C23.9605 13.8134 24.1897 13.7466 24.4566 13.7466C24.7269 13.7466 24.957 13.8142 25.1469 13.9494C25.3368 14.0828 25.4634 14.2641 25.5267 14.4934H25.5677C25.6482 14.2676 25.7936 14.0871 26.004 13.9519C26.2161 13.8151 26.4667 13.7466 26.7559 13.7466C27.1237 13.7466 27.4222 13.8638 27.6514 14.0982C27.8824 14.3309 27.9979 14.661 27.9979 15.0887V17.7395H26.9073V15.3043C26.9073 15.0853 26.8491 14.9211 26.7328 14.8116C26.6164 14.7021 26.471 14.6473 26.2965 14.6473C26.0981 14.6473 25.9433 14.7106 25.8321 14.8372C25.7209 14.9621 25.6653 15.1272 25.6653 15.3325V17.7395H24.6055V15.2812C24.6055 15.0879 24.5499 14.9339 24.4387 14.8193C24.3292 14.7047 24.1846 14.6473 24.005 14.6473C23.8835 14.6473 23.774 14.6781 23.6765 14.7397C23.5807 14.7996 23.5046 14.8843 23.4481 14.9938C23.3917 15.1015 23.3635 15.2281 23.3635 15.3736V17.7395H22.2703ZM30.6576 17.8165C30.2522 17.8165 29.9032 17.7344 29.6106 17.5701C29.3198 17.4042 29.0957 17.1698 28.9383 16.867C28.7809 16.5625 28.7022 16.2024 28.7022 15.7867C28.7022 15.3812 28.7809 15.0254 28.9383 14.7192C29.0957 14.413 29.3173 14.1743 29.6029 14.0032C29.8904 13.8322 30.2274 13.7466 30.614 13.7466C30.874 13.7466 31.1161 13.7886 31.3402 13.8724C31.566 13.9545 31.7628 14.0785 31.9304 14.2445C32.0998 14.4104 32.2315 14.6191 32.3256 14.8706C32.4197 15.1204 32.4667 15.4129 32.4667 15.7482V16.0484H29.1385V15.371H31.4377C31.4377 15.2136 31.4035 15.0742 31.3351 14.9527C31.2666 14.8312 31.1717 14.7363 31.0502 14.6679C30.9305 14.5977 30.7911 14.5627 30.632 14.5627C30.466 14.5627 30.3189 14.6012 30.1906 14.6781C30.064 14.7534 29.9648 14.8552 29.8929 14.9835C29.8211 15.1101 29.7843 15.2512 29.7826 15.4069V16.051C29.7826 16.246 29.8185 16.4145 29.8904 16.5565C29.9639 16.6985 30.0674 16.808 30.2009 16.885C30.3343 16.962 30.4925 17.0005 30.6756 17.0005C30.797 17.0005 30.9082 16.9834 31.0092 16.9491C31.1101 16.9149 31.1965 16.8636 31.2684 16.7952C31.3402 16.7267 31.3949 16.6429 31.4326 16.5437L32.4436 16.6104C32.3923 16.8533 32.2871 17.0655 32.128 17.2468C31.9706 17.4264 31.767 17.5667 31.5173 17.6677C31.2692 17.7669 30.9827 17.8165 30.6576 17.8165Z"
        fill="#2C2C2C" />
</svg>
    