<svg width="41" height="40" viewBox="0 0 41 40" fill="none" xmlns="http://www.w3.org/2000/svg">
    <circle cx="20.7143" cy="20" r="19.3056" fill="#1591EA" stroke="black" stroke-width="1.38889" />
    <circle cx="20.7058" cy="20" r="15.3704" fill="#D9D9D9" />
    <path
        d="M12.5951 23.7963L11.6228 26.25M11.6228 26.25L9.12285 25.3704M11.6228 26.25L10.7896 24.7219C6.02101 13.2869 19.771 4.35186 28.3359 12.6386L29.9562 14.213M29.9562 11.6667V14.213M29.9562 14.213H27.7803M23.0117 18.1945C25.6043 21.5741 21.1599 24.7219 18.8451 22.1759C16.2898 19.4001 19.9668 15.4139 23.0117 18.1945ZM23.0117 18.1945L25.0025 16.0185M20.7432 32.963V35.463M20.7432 35.463C25.5988 35.1286 29.1691 33.6574 31.6228 30.8796M20.7432 35.463C-0.0349776 34.7674 0.215492 5.23044 20.7432 4.62964M31.6228 30.8796L29.9562 29.1204M31.6228 30.8796C34.4006 28.3334 35.944 24.8087 36.1136 20.4167H33.4747"
        stroke="black" stroke-linecap="round" stroke-linejoin="round" />
</svg>
    