<svg width="91" height="51" viewBox="0 0 91 51" fill="none" xmlns="http://www.w3.org/2000/svg">
    <path
        d="M37.3122 47.4074H6.03465C2.85743 47.0126 1.30678 46.5022 0.933594 42.5926V14.5679C1.40806 11.5797 2.19061 10.3135 6.03465 10H85.101C88.647 10.48 89.6295 11.5396 89.9336 14.5679V42.5926C89.4899 45.7805 88.4029 46.8173 85.101 47.4074H53.9577M6.03465 18.0247V40C6.39968 42.2223 7.50342 42.7281 10.733 42.5926H36.3725L44.9638 50L53.9577 42.5926H81.8793C84.1606 42.4718 84.9788 42.0024 85.101 40V18.0247C85.1928 15.6145 84.6013 14.7683 81.8793 14.5679H8.71942C6.39358 14.8921 5.87729 15.7031 6.03465 18.0247Z"
        stroke="#2C2C2C" stroke-width="0.9" stroke-linejoin="round" />
    <path
        d="M11.6586 29.2727H13.1543L15.4341 33.2401H15.5279L17.8077 29.2727H19.3034L16.1373 34.5739V38H14.8248V34.5739L11.6586 29.2727ZM24.1103 35.2855V31.4545H25.3887V38H24.1358V36.8665H24.0676C23.9171 37.2159 23.6756 37.5071 23.3432 37.7401C23.0137 37.9702 22.6032 38.0852 22.1117 38.0852C21.6912 38.0852 21.3191 37.9929 20.9952 37.8082C20.6742 37.6207 20.4213 37.3438 20.2367 36.9773C20.0549 36.6108 19.964 36.1577 19.964 35.6179V31.4545H21.2381V35.4645C21.2381 35.9105 21.3617 36.2656 21.6088 36.5298C21.856 36.794 22.177 36.9261 22.5719 36.9261C22.8105 36.9261 23.0478 36.8665 23.2836 36.7472C23.5222 36.6278 23.7196 36.4474 23.8759 36.206C24.035 35.9645 24.1131 35.6577 24.1103 35.2855ZM27.1007 38V31.4545H28.3322V32.4943H28.4004C28.5197 32.142 28.7299 31.8651 29.0311 31.6634C29.335 31.4588 29.6788 31.3565 30.0623 31.3565C30.1419 31.3565 30.2356 31.3594 30.3436 31.3651C30.4544 31.3707 30.541 31.3778 30.6035 31.3864V32.6051C30.5524 32.5909 30.4615 32.5753 30.3308 32.5582C30.2001 32.5384 30.0694 32.5284 29.9387 32.5284C29.6376 32.5284 29.3691 32.5923 29.1333 32.7202C28.9004 32.8452 28.7157 33.0199 28.5794 33.2443C28.443 33.4659 28.3748 33.7187 28.3748 34.0028V38H27.1007ZM35.1483 31.4545V32.4773H31.573V31.4545H35.1483ZM32.5318 29.8864H33.8059V36.0781C33.8059 36.3253 33.8429 36.5114 33.9167 36.6364C33.9906 36.7585 34.0858 36.8423 34.2022 36.8878C34.3216 36.9304 34.4508 36.9517 34.59 36.9517C34.6923 36.9517 34.7818 36.9446 34.8585 36.9304C34.9352 36.9162 34.9949 36.9048 35.0375 36.8963L35.2676 37.9489C35.1937 37.9773 35.0886 38.0057 34.9522 38.0341C34.8159 38.0653 34.6454 38.0824 34.4409 38.0852C34.1056 38.0909 33.7931 38.0312 33.5034 37.9062C33.2136 37.7812 32.9792 37.5881 32.8002 37.3267C32.6213 37.0653 32.5318 36.7372 32.5318 36.3423V29.8864ZM38.4625 38.1449C38.0478 38.1449 37.6728 38.0682 37.3375 37.9148C37.0023 37.7585 36.7367 37.5327 36.5407 37.2372C36.3475 36.9418 36.2509 36.5795 36.2509 36.1506C36.2509 35.7812 36.3219 35.4773 36.464 35.2386C36.606 35 36.7978 34.8111 37.0392 34.6719C37.2807 34.5327 37.5506 34.4276 37.8489 34.3565C38.1472 34.2855 38.4512 34.2315 38.7608 34.1946C39.1529 34.1491 39.4711 34.1122 39.7154 34.0838C39.9597 34.0526 40.1373 34.0028 40.248 33.9347C40.3588 33.8665 40.4142 33.7557 40.4142 33.6023V33.5724C40.4142 33.2003 40.3091 32.9119 40.0989 32.7074C39.8915 32.5028 39.5819 32.4006 39.1699 32.4006C38.7409 32.4006 38.4029 32.4957 38.1557 32.6861C37.9114 32.8736 37.7424 33.0824 37.6486 33.3125L36.4512 33.0398C36.5932 32.642 36.8006 32.321 37.0733 32.0767C37.3489 31.8295 37.6657 31.6506 38.0236 31.5398C38.3816 31.4261 38.758 31.3693 39.1529 31.3693C39.4142 31.3693 39.6912 31.4006 39.9838 31.4631C40.2793 31.5227 40.5549 31.6335 40.8105 31.7955C41.0691 31.9574 41.2807 32.1889 41.4455 32.4901C41.6103 32.7884 41.6926 33.1761 41.6926 33.6534V38H40.4483V37.1051H40.3972C40.3148 37.2699 40.1912 37.4318 40.0265 37.5909C39.8617 37.75 39.65 37.8821 39.3915 37.9872C39.133 38.0923 38.8233 38.1449 38.4625 38.1449ZM38.7395 37.1222C39.0918 37.1222 39.3929 37.0526 39.6429 36.9134C39.8958 36.7741 40.0875 36.5923 40.2182 36.3679C40.3517 36.1406 40.4185 35.8977 40.4185 35.6392V34.7955C40.373 34.8409 40.285 34.8835 40.1543 34.9233C40.0265 34.9602 39.8801 34.9929 39.7154 35.0213C39.5506 35.0469 39.3901 35.071 39.2338 35.0938C39.0776 35.1136 38.9469 35.1307 38.8418 35.1449C38.5946 35.1761 38.3688 35.2287 38.1642 35.3026C37.9625 35.3764 37.8006 35.483 37.6784 35.6222C37.5591 35.7585 37.4995 35.9403 37.4995 36.1676C37.4995 36.483 37.6159 36.7216 37.8489 36.8835C38.0819 37.0426 38.3787 37.1222 38.7395 37.1222ZM46.6678 38V29.2727H47.9846V33.0653H52.3354V29.2727H53.6564V38H52.3354V34.1946H47.9846V38H46.6678ZM58.2289 38.1321C57.6152 38.1321 57.0797 37.9915 56.6223 37.7102C56.165 37.429 55.8098 37.0355 55.557 36.5298C55.3042 36.0241 55.1777 35.4332 55.1777 34.7571C55.1777 34.0781 55.3042 33.4844 55.557 32.9759C55.8098 32.4673 56.165 32.0724 56.6223 31.7912C57.0797 31.5099 57.6152 31.3693 58.2289 31.3693C58.8425 31.3693 59.378 31.5099 59.8354 31.7912C60.2928 32.0724 60.6479 32.4673 60.9007 32.9759C61.1536 33.4844 61.28 34.0781 61.28 34.7571C61.28 35.4332 61.1536 36.0241 60.9007 36.5298C60.6479 37.0355 60.2928 37.429 59.8354 37.7102C59.378 37.9915 58.8425 38.1321 58.2289 38.1321ZM58.2331 37.0625C58.6309 37.0625 58.9604 36.9574 59.2218 36.7472C59.4831 36.5369 59.6763 36.2571 59.8013 35.9077C59.9292 35.5582 59.9931 35.1733 59.9931 34.7528C59.9931 34.3352 59.9292 33.9517 59.8013 33.6023C59.6763 33.25 59.4831 32.9673 59.2218 32.7543C58.9604 32.5412 58.6309 32.4347 58.2331 32.4347C57.8326 32.4347 57.5002 32.5412 57.236 32.7543C56.9746 32.9673 56.78 33.25 56.6522 33.6023C56.5272 33.9517 56.4647 34.3352 56.4647 34.7528C56.4647 35.1733 56.5272 35.5582 56.6522 35.9077C56.78 36.2571 56.9746 36.5369 57.236 36.7472C57.5002 36.9574 57.8326 37.0625 58.2331 37.0625ZM62.7022 38V31.4545H63.9252V32.5199H64.0062C64.1426 32.1591 64.3656 31.8778 64.6752 31.6761C64.9849 31.4716 65.3556 31.3693 65.7875 31.3693C66.225 31.3693 66.5914 31.4716 66.8869 31.6761C67.1852 31.8807 67.4054 32.1619 67.5474 32.5199H67.6156C67.7718 32.1705 68.0204 31.892 68.3613 31.6847C68.7022 31.4744 69.1085 31.3693 69.5801 31.3693C70.1738 31.3693 70.6582 31.5554 71.0332 31.9276C71.411 32.2997 71.6 32.8608 71.6 33.6108V38H70.3258V33.7301C70.3258 33.2869 70.2051 32.9659 69.9636 32.767C69.7221 32.5682 69.4338 32.4688 69.0985 32.4688C68.6838 32.4688 68.3613 32.5966 68.1312 32.8523C67.9011 33.1051 67.786 33.4304 67.786 33.8281V38H66.5162V33.6491C66.5162 33.294 66.4054 33.0085 66.1838 32.7926C65.9622 32.5767 65.6738 32.4688 65.3187 32.4688C65.0772 32.4688 64.8542 32.5327 64.6497 32.6605C64.448 32.7855 64.2846 32.9602 64.1596 33.1847C64.0375 33.4091 63.9764 33.669 63.9764 33.9645V38H62.7022ZM76.1287 38.1321C75.4838 38.1321 74.9284 37.9943 74.4625 37.7188C73.9995 37.4403 73.6415 37.0497 73.3887 36.5469C73.1387 36.0412 73.0137 35.4489 73.0137 34.7699C73.0137 34.0994 73.1387 33.5085 73.3887 32.9972C73.6415 32.4858 73.9938 32.0866 74.4455 31.7997C74.9 31.5128 75.4313 31.3693 76.0392 31.3693C76.4086 31.3693 76.7665 31.4304 77.1131 31.5526C77.4597 31.6747 77.7708 31.8665 78.0463 32.1278C78.3219 32.3892 78.5392 32.7287 78.6983 33.1463C78.8574 33.5611 78.937 34.0653 78.937 34.6591V35.1108H73.7338V34.1562H77.6884C77.6884 33.821 77.6202 33.5241 77.4838 33.2656C77.3475 33.0043 77.1557 32.7983 76.9086 32.6477C76.6642 32.4972 76.3773 32.4219 76.0478 32.4219C75.6898 32.4219 75.3773 32.5099 75.1103 32.6861C74.8461 32.8594 74.6415 33.0866 74.4966 33.3679C74.3546 33.6463 74.2836 33.9489 74.2836 34.2756V35.0213C74.2836 35.4588 74.3603 35.831 74.5137 36.1378C74.6699 36.4446 74.8873 36.679 75.1657 36.8409C75.4441 37 75.7694 37.0795 76.1415 37.0795C76.383 37.0795 76.6032 37.0455 76.802 36.9773C77.0009 36.9062 77.1728 36.8011 77.3176 36.6619C77.4625 36.5227 77.5733 36.3509 77.65 36.1463L78.856 36.3636C78.7594 36.7187 78.5861 37.0298 78.3361 37.2969C78.089 37.5611 77.7779 37.767 77.4029 37.9148C77.0307 38.0597 76.606 38.1321 76.1287 38.1321Z"
        fill="#2C2C2C" />
    <rect x="28" width="34" height="28" rx="8" fill="white" />
    <path
        d="M59 13.392C53.8323 15.7972 37.5635 16.3869 31 13.392V24.251C33.3432 25.8284 35.6478 26.2144 40.3878 26.5863V20.281C40.3878 18.5296 40.3878 18.5296 41.7423 18.5296H48.8182C49.8691 18.5296 50.0792 18.5296 50.0792 20.281V26.5863C54.7803 26.1544 57.0117 25.7526 59 24.251V13.392Z"
        fill="#1591EA" />
    <path
        d="M49.6355 4.89153C49.4246 4.71616 59 11.5471 59 11.5471C59 11.5471 58.346 12.8548 54.6096 13.392C50.8731 13.9291 51.3511 13.8315 48.8182 14.0458C46.0546 14.3485 44.5061 14.3606 41.7423 14.0458C40.018 13.9599 38.8178 13.8233 36.1842 13.392C33.5506 12.9606 31.7458 12.6036 31 11.5471C32.3079 10.6432 40.3878 4.89153 40.3878 4.89153C41.7561 6.14798 42.7536 6.54189 45.0816 6.50291C47.6245 6.73922 49.8464 5.06691 49.6355 4.89153Z"
        fill="#1591EA" />
    <path
        d="M45.0816 3C43.0006 3.08461 41.9395 3.17254 41.7423 3.98082C41.6948 4.67417 42.4367 4.95738 45.0816 5.28858C47.6581 4.93169 48.5393 4.66381 48.3977 3.98082C48.1463 3.37235 47.4514 3.15074 45.0816 3Z"
        fill="#1591EA" />
    <path
        d="M48.8182 26.5863C45.9919 26.7845 44.3847 26.7938 41.4853 26.5863V20.281C41.4998 19.5398 41.6888 19.3315 42.3961 19.3937H47.884C48.5787 19.428 48.7828 19.6215 48.8182 20.281V26.5863Z"
        fill="#1591EA" />
    <path
        d="M59 13.392C53.8323 15.7972 37.5635 16.3869 31 13.392V24.251C33.3432 25.8284 35.6478 26.2144 40.3878 26.5863V20.281C40.3878 18.5296 40.3878 18.5296 41.7423 18.5296H48.8182C49.8691 18.5296 50.0792 18.5296 50.0792 20.281V26.5863C54.7803 26.1544 57.0117 25.7526 59 24.251V13.392Z"
        stroke="#333333" stroke-width="0.343559" />
    <path
        d="M49.6355 4.89153C49.4246 4.71616 59 11.5471 59 11.5471C59 11.5471 58.346 12.8548 54.6096 13.392C50.8731 13.9291 51.3511 13.8315 48.8182 14.0458C46.0546 14.3485 44.5061 14.3606 41.7423 14.0458C40.018 13.9599 38.8178 13.8233 36.1842 13.392C33.5506 12.9606 31.7458 12.6036 31 11.5471C32.3079 10.6432 40.3878 4.89153 40.3878 4.89153C41.7561 6.14798 42.7536 6.54189 45.0816 6.50291C47.6245 6.73922 49.8464 5.06691 49.6355 4.89153Z"
        stroke="#333333" stroke-width="0.343559" />
    <path
        d="M45.0816 3C43.0006 3.08461 41.9395 3.17254 41.7423 3.98082C41.6948 4.67417 42.4367 4.95738 45.0816 5.28858C47.6581 4.93169 48.5393 4.66381 48.3977 3.98082C48.1463 3.37235 47.4514 3.15074 45.0816 3Z"
        stroke="#333333" stroke-width="0.343559" />
    <path
        d="M48.8182 26.5863C45.9919 26.7845 44.3847 26.7938 41.4853 26.5863V20.281C41.4998 19.5398 41.6888 19.3315 42.3961 19.3937H47.884C48.5787 19.428 48.7828 19.6215 48.8182 20.281V26.5863Z"
        stroke="#333333" stroke-width="0.343559" />
</svg>
    