<svg width="20" height="22" viewBox="0 0 20 22" fill="none" xmlns="http://www.w3.org/2000/svg">
    <path
        d="M17.07 21.75C16.56 21.75 16 21.6 15.46 21.29L10.58 18.58C10.29 18.42 9.72001 18.42 9.43001 18.58L4.55001 21.29C3.56001 21.84 2.55001 21.9 1.78001 21.44C1.01001 20.99 0.570007 20.08 0.570007 18.95V4.86C0.570007 2.32 2.64001 0.25 5.18001 0.25H14.83C17.37 0.25 19.44 2.32 19.44 4.86V18.95C19.44 20.08 19 20.99 18.23 21.44C17.88 21.65 17.48 21.75 17.07 21.75ZM10 16.96C10.47 16.96 10.93 17.06 11.3 17.27L16.18 19.98C16.69 20.27 17.16 20.33 17.46 20.15C17.76 19.97 17.93 19.54 17.93 18.95V4.86C17.93 3.15 16.53 1.75 14.82 1.75H5.18001C3.47001 1.75 2.07001 3.15 2.07001 4.86V18.95C2.07001 19.54 2.24001 19.98 2.54001 20.15C2.84001 20.32 3.31001 20.27 3.82001 19.98L8.70001 17.27C9.07001 17.06 9.53001 16.96 10 16.96Z"
        fill="#414141" />
</svg>