<svg width="28" height="28" viewBox="0 0 28 28" fill="none" xmlns="http://www.w3.org/2000/svg">
    <path fill-rule="evenodd" clip-rule="evenodd"
        d="M0 14C0 6.26801 6.26801 0 14 0C21.732 0 28 6.26801 28 14C28 21.732 21.732 28 14 28C6.26801 28 0 21.732 0 14ZM14.7342 18.5953C14.7342 18.5953 15.0037 18.5659 15.1417 18.4204C15.2681 18.287 15.2637 18.0354 15.2637 18.0354C15.2637 18.0354 15.2469 16.8603 15.8027 16.6868C16.3505 16.5161 17.0539 17.8231 17.8004 18.3257C18.3642 18.7057 18.7922 18.6225 18.7922 18.6225L20.7869 18.5953C20.7869 18.5953 21.8299 18.5322 21.3354 17.7271C21.2945 17.6611 21.0469 17.1313 19.8527 16.043C18.6016 14.9037 18.7696 15.088 20.2756 13.1171C21.193 11.9169 21.5597 11.1842 21.445 10.8709C21.3362 10.5712 20.6613 10.6508 20.6613 10.6508L18.4161 10.6644C18.4161 10.6644 18.2495 10.6422 18.1261 10.7146C18.0056 10.7856 17.9274 10.9512 17.9274 10.9512C17.9274 10.9512 17.5725 11.8796 17.0984 12.6697C16.0985 14.3359 15.699 14.4241 15.5354 14.3208C15.1549 14.0792 15.2498 13.3515 15.2498 12.8346C15.2498 11.2193 15.4996 10.5461 14.7641 10.3719C14.5202 10.3138 14.3405 10.2758 13.716 10.2694C12.9148 10.2615 12.237 10.2722 11.8528 10.4565C11.5972 10.5791 11.3999 10.853 11.5205 10.8687C11.6687 10.8881 12.0047 10.9576 12.1829 11.1957C12.413 11.5032 12.405 12.1929 12.405 12.1929C12.405 12.1929 12.5372 14.0943 12.096 14.3302C11.7936 14.4922 11.3788 14.1617 10.487 12.6496C10.0305 11.8753 9.68572 11.0193 9.68572 11.0193C9.68572 11.0193 9.61926 10.8594 9.5002 10.7734C9.35632 10.6694 9.15546 10.6372 9.15546 10.6372L7.02199 10.6508C7.02199 10.6508 6.70135 10.6594 6.58376 10.7963C6.47931 10.9175 6.57572 11.1691 6.57572 11.1691C6.57572 11.1691 8.24612 15.0055 10.1378 16.9391C11.8725 18.7114 13.8416 18.5953 13.8416 18.5953H14.7342Z"
        fill="#6E6E6E" />
</svg>
    