<svg width="36" height="38" viewBox="0 0 36 38" fill="none" xmlns="http://www.w3.org/2000/svg">
    <path
        d="M4.86885 4.49318C7.43049 4.49318 7.43049 0.767151 4.86885 0.767151C2.30721 0.767151 2.30721 4.49318 4.86885 4.49318Z"
        fill="#B3E5FC" />
    <path
        d="M12.7867 11.0137C15.1607 12.455 4.88889 6.69472 5.80036 14.5069H25.8278C26.5358 5.70756 19.4099 6.58504 17.4442 6.58907C16.9534 6.59008 16.9916 5.75594 16.5127 5.42469C11.8433 2.19515 10.4126 9.57246 12.7867 11.0137Z"
        fill="#B3E5FC" />
    <path d="M4.74017 28.4931L4.4071 26.3758L1.14282 29.411L2.54008 30.5754L4.74017 28.4931Z"
        fill="#2F3438" />
    <path d="M15.5812 18.2329L14.4168 17.0685L4.4071 26.3758L4.74017 28.4931L15.5812 18.2329Z"
        fill="#2F3438" />
    <path
        d="M27.6908 22.1918L23.9647 20.5617C13.1894 26.4535 10.3618 29.6894 15.5812 35.2329H22.3346H34.4442C30.7345 34.8088 27.6908 32.9041 27.6908 30.5754C27.6908 28.2466 29.5584 24.1985 27.6908 22.1918Z"
        fill="#FDC415" />
    <path d="M27.6908 22.1918L35.1428 2.86304L32.5812 1.93153L23.9647 20.5617L27.6908 22.1918Z"
        fill="#3F51B5" />
    <path
        d="M26.7593 14.5069H25.8278M5.80036 14.5069H2.54008L4.4071 26.3758M5.80036 14.5069C4.88889 6.69472 15.1607 12.455 12.7867 11.0137C10.4126 9.57246 11.8433 2.19515 16.5127 5.42469C16.9916 5.75594 16.9534 6.59008 17.4442 6.58907C19.4099 6.58504 26.5358 5.70756 25.8278 14.5069M5.80036 14.5069H25.8278M27.6908 22.1918L35.1428 2.86304L32.5812 1.93153L23.9647 20.5617M27.6908 22.1918L23.9647 20.5617M27.6908 22.1918C29.5584 24.1985 27.6908 28.2466 27.6908 30.5754C27.6908 32.9041 30.7345 34.8088 34.4442 35.2329M23.9647 20.5617C13.1894 26.4535 10.3618 29.6894 15.5812 35.2329M34.4442 35.2329H15.5812M34.4442 35.2329H22.3346H15.5812M15.5812 35.2329H5.80036L4.74017 28.4931M4.74017 28.4931L4.4071 26.3758M4.74017 28.4931L2.54008 30.5754L1.14282 29.411L4.4071 26.3758M4.74017 28.4931L15.5812 18.2329L14.4168 17.0685L4.4071 26.3758M4.86885 4.49318C7.43049 4.49318 7.43049 0.767151 4.86885 0.767151C2.30721 0.767151 2.30721 4.49318 4.86885 4.49318Z"
        stroke="black" stroke-width="0.8" stroke-linejoin="round" />
</svg>