<svg width="142" height="105" viewBox="0 0 142 105" fill="none" xmlns="http://www.w3.org/2000/svg">
    <path
        d="M9.02413 87.3122V49.7255C8.7766 45.7547 9.58874 44.3675 13.2474 43.813H128.33C132.612 44.1557 133.543 45.603 133.398 49.7255V87.3122C133.206 90.7372 131.919 91.54 128.33 91.7466H84.4088L70.2609 104.416L56.7466 91.7466H16.4148C11.3346 91.9783 9.59833 91.1132 9.02413 87.3122Z"
        fill="#EEEEEE" />
    <path
        d="M58.2247 99.9819H9.02413C4.02626 99.3067 1.58704 98.4336 1 91.7466V43.813C1.74634 38.702 2.97732 36.5363 9.02413 36H133.398C138.976 36.8209 140.522 38.6334 141 43.813V91.7466C140.302 97.1992 138.592 98.9726 133.398 99.9819H84.4087M9.02413 49.7255V87.3122C9.59833 91.1132 11.3346 91.9783 16.4148 91.7466H56.7466L70.2609 104.416L84.4087 91.7466H128.33C131.919 91.54 133.206 90.7372 133.398 87.3122V49.7255C133.543 45.603 132.612 44.1557 128.33 43.813H13.2474C9.58874 44.3675 8.7766 45.7547 9.02413 49.7255Z"
        stroke="#2C2C2C" stroke-width="0.422323" />
    <path
        d="M18.6875 63.3319H21.8152L24.8268 69.0197H24.9558L27.9674 63.3319H31.095L26.2778 71.8701V76.5391H23.5048V71.8701L18.6875 63.3319ZM38.1936 72.3215V66.6337H40.9408V76.5391H38.3032V74.7398H38.2C37.9765 75.3202 37.6046 75.7867 37.0844 76.1392C36.5685 76.4918 35.9386 76.668 35.1949 76.668C34.5328 76.668 33.9503 76.5176 33.4472 76.2166C32.9442 75.9157 32.5509 75.4879 32.2671 74.9333C31.9877 74.3787 31.8458 73.7145 31.8415 72.9406V66.6337H34.5887V72.4505C34.593 73.0352 34.7499 73.4974 35.0595 73.837C35.369 74.1766 35.7839 74.3465 36.3041 74.3465C36.6351 74.3465 36.9447 74.2712 37.2327 74.1208C37.5208 73.966 37.7529 73.7381 37.9292 73.4372C38.1097 73.1362 38.1979 72.7644 38.1936 72.3215ZM43.1382 76.5391V66.6337H45.8016V68.362H45.9048C46.0853 67.7472 46.3884 67.2829 46.814 66.969C47.2397 66.6509 47.7298 66.4918 48.2844 66.4918C48.4219 66.4918 48.5703 66.5004 48.7293 66.5176C48.8884 66.5348 49.0281 66.5584 49.1485 66.5885V69.0262C49.0195 68.9875 48.8411 68.9531 48.6133 68.923C48.3854 68.8929 48.1769 68.8779 47.9877 68.8779C47.5836 68.8779 47.2225 68.966 46.9043 69.1423C46.5905 69.3142 46.3411 69.555 46.1563 69.8645C45.9757 70.1741 45.8854 70.5309 45.8854 70.935V76.5391H43.1382ZM56.3341 66.6337V68.6973H50.369V66.6337H56.3341ZM51.7232 64.2605H54.4704V73.4952C54.4704 73.7489 54.5091 73.9466 54.5865 74.0885C54.6639 74.2261 54.7713 74.3228 54.9089 74.3787C55.0508 74.4346 55.2142 74.4625 55.399 74.4625C55.528 74.4625 55.657 74.4518 55.786 74.4303C55.9149 74.4045 56.0138 74.3852 56.0826 74.3723L56.5147 76.4165C56.3771 76.4595 56.1836 76.509 55.9343 76.5649C55.6849 76.625 55.3818 76.6616 55.025 76.6745C54.3629 76.7003 53.7825 76.6121 53.2838 76.4101C52.7894 76.208 52.4046 75.8942 52.1295 75.4686C51.8543 75.0429 51.7189 74.5055 51.7232 73.8564V64.2605ZM60.9482 76.7261C60.3163 76.7261 59.7531 76.6164 59.2587 76.3972C58.7642 76.1736 58.373 75.8447 58.085 75.4105C57.8012 74.972 57.6593 74.426 57.6593 73.7725C57.6593 73.2222 57.7604 72.7601 57.9624 72.386C58.1645 72.012 58.4397 71.711 58.7879 71.4832C59.1361 71.2553 59.5317 71.0834 59.9745 70.9673C60.4216 70.8512 60.8902 70.7695 61.3803 70.7222C61.9564 70.662 62.4207 70.6061 62.7733 70.5546C63.1258 70.4987 63.3816 70.417 63.5407 70.3095C63.6997 70.202 63.7793 70.043 63.7793 69.8323V69.7936C63.7793 69.3852 63.6503 69.0692 63.3923 68.8456C63.1387 68.6221 62.7776 68.5103 62.3089 68.5103C61.8145 68.5103 61.4212 68.6199 61.1288 68.8392C60.8365 69.0541 60.643 69.325 60.5484 69.6517L58.0076 69.4454C58.1366 68.8435 58.3902 68.3233 58.7685 67.8847C59.1469 67.4419 59.6348 67.1023 60.2324 66.8658C60.8343 66.6251 61.5308 66.5047 62.3218 66.5047C62.8721 66.5047 63.3988 66.5692 63.9018 66.6982C64.4091 66.8271 64.8584 67.0271 65.2496 67.2979C65.6451 67.5688 65.9568 67.917 66.1847 68.3426C66.4125 68.7639 66.5265 69.2691 66.5265 69.8581V76.5391H63.9211V75.1655H63.8438C63.6847 75.475 63.4719 75.748 63.2053 75.9845C62.9388 76.2166 62.6185 76.3993 62.2445 76.5326C61.8704 76.6616 61.4384 76.7261 60.9482 76.7261ZM61.735 74.8301C62.1391 74.8301 62.496 74.7506 62.8055 74.5915C63.115 74.4281 63.358 74.2089 63.5342 73.9337C63.7105 73.6586 63.7986 73.3469 63.7986 72.9987V71.9475C63.7126 72.0034 63.5944 72.055 63.4439 72.1023C63.2978 72.1453 63.1322 72.1861 62.9474 72.2248C62.7625 72.2592 62.5776 72.2914 62.3928 72.3215C62.2079 72.3473 62.0402 72.371 61.8898 72.3925C61.5673 72.4398 61.2857 72.515 61.045 72.6182C60.8042 72.7214 60.6172 72.8611 60.4839 73.0374C60.3507 73.2093 60.284 73.4243 60.284 73.6822C60.284 74.0563 60.4194 74.3422 60.6903 74.5399C60.9654 74.7334 61.3137 74.8301 61.735 74.8301ZM72.9124 76.5391V63.3319H75.7048V68.7811H81.3733V63.3319H84.1592V76.5391H81.3733V71.0834H75.7048V76.5391H72.9124ZM90.8853 76.7325C89.8836 76.7325 89.0173 76.5197 88.2864 76.0941C87.5598 75.6642 86.9988 75.0666 86.6033 74.3013C86.2077 73.5318 86.01 72.6397 86.01 71.6251C86.01 70.6018 86.2077 69.7076 86.6033 68.9424C86.9988 68.1728 87.5598 67.5752 88.2864 67.1496C89.0173 66.7197 89.8836 66.5047 90.8853 66.5047C91.887 66.5047 92.7511 66.7197 93.4777 67.1496C94.2086 67.5752 94.7718 68.1728 95.1673 68.9424C95.5628 69.7076 95.7606 70.6018 95.7606 71.6251C95.7606 72.6397 95.5628 73.5318 95.1673 74.3013C94.7718 75.0666 94.2086 75.6642 93.4777 76.0941C92.7511 76.5197 91.887 76.7325 90.8853 76.7325ZM90.8982 74.6044C91.3539 74.6044 91.7344 74.4754 92.0396 74.2175C92.3449 73.9552 92.5749 73.5984 92.7296 73.147C92.8887 72.6956 92.9683 72.1818 92.9683 71.6057C92.9683 71.0296 92.8887 70.5159 92.7296 70.0644C92.5749 69.613 92.3449 69.2562 92.0396 68.9939C91.7344 68.7317 91.3539 68.6006 90.8982 68.6006C90.4382 68.6006 90.0512 68.7317 89.7374 68.9939C89.4278 69.2562 89.1935 69.613 89.0345 70.0644C88.8797 70.5159 88.8023 71.0296 88.8023 71.6057C88.8023 72.1818 88.8797 72.6956 89.0345 73.147C89.1935 73.5984 89.4278 73.9552 89.7374 74.2175C90.0512 74.4754 90.4382 74.6044 90.8982 74.6044ZM97.5469 76.5391V66.6337H100.165V68.3813H100.281C100.488 67.8009 100.832 67.343 101.313 67.0077C101.795 66.6724 102.371 66.5047 103.041 66.5047C103.721 66.5047 104.299 66.6745 104.776 67.0142C105.253 67.3495 105.571 67.8052 105.73 68.3813H105.834C106.036 67.8138 106.401 67.3602 106.93 67.0206C107.463 66.6767 108.093 66.5047 108.819 66.5047C109.744 66.5047 110.494 66.7992 111.07 67.3882C111.65 67.9729 111.941 68.8026 111.941 69.8774V76.5391H109.2V70.4191C109.2 69.8688 109.054 69.4561 108.761 69.181C108.469 68.9058 108.104 68.7682 107.665 68.7682C107.166 68.7682 106.777 68.9273 106.498 69.2454C106.218 69.5593 106.079 69.9742 106.079 70.4901V76.5391H103.415V70.3611C103.415 69.8753 103.276 69.4884 102.996 69.2003C102.721 68.9123 102.358 68.7682 101.906 68.7682C101.601 68.7682 101.326 68.8456 101.081 69.0004C100.84 69.1509 100.649 69.3637 100.507 69.6388C100.365 69.9097 100.294 70.2278 100.294 70.5932V76.5391H97.5469ZM118.625 76.7325C117.606 76.7325 116.729 76.5262 115.994 76.1134C115.263 75.6964 114.7 75.1074 114.304 74.3465C113.909 73.5812 113.711 72.6762 113.711 71.6315C113.711 70.6126 113.909 69.7184 114.304 68.9488C114.7 68.1792 115.256 67.5795 115.974 67.1496C116.697 66.7197 117.544 66.5047 118.515 66.5047C119.169 66.5047 119.777 66.61 120.34 66.8207C120.908 67.0271 121.402 67.3387 121.824 67.7558C122.249 68.1728 122.58 68.6973 122.817 69.3293C123.053 69.957 123.171 70.6921 123.171 71.5348V72.2893H114.807V70.5868H120.585C120.585 70.1913 120.499 69.8409 120.327 69.5356C120.155 69.2304 119.917 68.9918 119.612 68.8198C119.311 68.6436 118.96 68.5554 118.56 68.5554C118.143 68.5554 117.774 68.6522 117.451 68.8456C117.133 69.0348 116.884 69.2906 116.703 69.613C116.523 69.9312 116.43 70.2859 116.426 70.6771V72.2957C116.426 72.7858 116.516 73.2093 116.697 73.5662C116.882 73.923 117.142 74.1981 117.477 74.3916C117.812 74.5851 118.21 74.6818 118.67 74.6818C118.975 74.6818 119.255 74.6388 119.508 74.5528C119.762 74.4668 119.979 74.3379 120.16 74.1659C120.34 73.9939 120.478 73.7833 120.572 73.5339L123.113 73.7016C122.984 74.3121 122.72 74.8452 122.32 75.3009C121.925 75.7523 121.413 76.1048 120.785 76.3585C120.162 76.6078 119.442 76.7325 118.625 76.7325Z"
        fill="#2C2C2C" />
    <path
        d="M105.32 26.9181C92.615 32.8315 52.618 34.2813 36.4814 26.9181V53.6153C42.2422 57.4934 47.9083 58.4423 59.5616 59.3567V43.855C59.5616 39.549 59.5616 39.549 62.8916 39.549H80.2878C82.8714 39.549 83.3881 39.549 83.3881 43.855V59.3567C94.9457 58.2949 100.432 57.3071 105.32 53.6153V26.9181Z"
        fill="#1591EA" />
    <path
        d="M82.2973 6.01964C81.7788 5.58848 105.32 22.3825 105.32 22.3825C105.32 22.3825 103.712 25.5975 94.5261 26.9181C85.3399 28.2387 86.515 27.9989 80.2878 28.5257C73.4936 29.2697 69.6864 29.2995 62.8916 28.5257C58.6523 28.3143 55.7016 27.9786 49.2269 26.9181C42.7522 25.8576 38.3149 24.9799 36.4814 22.3825C39.6969 20.1603 59.5616 6.01964 59.5616 6.01964C62.9255 9.10864 65.3779 10.0771 71.1014 9.98125C77.353 10.5622 82.8158 6.45079 82.2973 6.01964Z"
        fill="#1591EA" />
    <path
        d="M71.1014 1.36926C65.9853 1.57727 63.3764 1.79346 62.8916 3.78062C62.7747 5.48526 64.5987 6.18153 71.1014 6.99577C77.4357 6.11836 79.6021 5.45978 79.2541 3.78062C78.636 2.28468 76.9275 1.73986 71.1014 1.36926Z"
        fill="#1591EA" />
    <path
        d="M80.2878 59.3567C73.3393 59.8439 69.388 59.8669 62.2598 59.3567V43.855C62.2953 42.0327 62.76 41.5207 64.4989 41.6735H77.991C79.699 41.7579 80.2007 42.2335 80.2878 43.855V59.3567Z"
        fill="#1591EA" />
    <path
        d="M105.32 26.9181C92.615 32.8315 52.618 34.2813 36.4814 26.9181V53.6153C42.2422 57.4934 47.9083 58.4423 59.5616 59.3567V43.855C59.5616 39.549 59.5616 39.549 62.8916 39.549H80.2878C82.8714 39.549 83.3881 39.549 83.3881 43.855V59.3567C94.9457 58.2949 100.432 57.3071 105.32 53.6153V26.9181Z"
        stroke="#333333" stroke-width="0.844646" />
    <path
        d="M82.2973 6.01964C81.7788 5.58848 105.32 22.3825 105.32 22.3825C105.32 22.3825 103.712 25.5975 94.5261 26.9181C85.3399 28.2387 86.515 27.9989 80.2878 28.5257C73.4936 29.2697 69.6864 29.2995 62.8916 28.5257C58.6523 28.3143 55.7016 27.9786 49.2269 26.9181C42.7522 25.8576 38.3149 24.9799 36.4814 22.3825C39.6969 20.1603 59.5616 6.01964 59.5616 6.01964C62.9255 9.10864 65.3779 10.0771 71.1014 9.98125C77.353 10.5622 82.8158 6.45079 82.2973 6.01964Z"
        stroke="#333333" stroke-width="0.844646" />
    <path
        d="M71.1014 1.36926C65.9853 1.57727 63.3764 1.79346 62.8916 3.78062C62.7747 5.48526 64.5987 6.18153 71.1014 6.99577C77.4357 6.11836 79.6021 5.45978 79.2541 3.78062C78.636 2.28468 76.9275 1.73986 71.1014 1.36926Z"
        stroke="#333333" stroke-width="0.844646" />
    <path
        d="M80.2878 59.3567C73.3393 59.8439 69.388 59.8669 62.2598 59.3567V43.855C62.2953 42.0327 62.76 41.5207 64.4989 41.6735H77.991C79.699 41.7579 80.2007 42.2335 80.2878 43.855V59.3567Z"
        stroke="#333333" stroke-width="0.844646" />
</svg>