<svg width="16" height="16" viewBox="0 0 16 16" fill="none" xmlns="http://www.w3.org/2000/svg">
    <path
        d="M1.24037 12.9102L0.70765 12.722H0.70765L1.24037 12.9102ZM2.77161 14.4414L2.58337 13.9087L2.77161 14.4414ZM4.55979 14.1946L4.82353 13.6949L4.55979 14.1946ZM1.53137 11.0727L1.02387 11.321L1.53137 11.0727ZM1.59358 11.9106L1.06086 11.7224L1.59358 11.9106ZM1.38769 8C1.38769 4.44605 4.26874 1.565 7.82269 1.565V0.435C3.64466 0.435 0.257693 3.82197 0.257693 8H1.38769ZM2.03887 10.8244C1.62198 9.97237 1.38769 9.01435 1.38769 8H0.257693C0.257693 9.19024 0.532976 10.3178 1.02387 11.321L2.03887 10.8244ZM1.77309 13.0984L2.1263 12.0989L1.06086 11.7224L0.70765 12.722L1.77309 13.0984ZM2.58337 13.9087C2.08006 14.0866 1.59524 13.6018 1.77309 13.0984L0.70765 12.722C0.213317 14.1209 1.56089 15.4685 2.95985 14.9742L2.58337 13.9087ZM3.50378 13.5835L2.58337 13.9087L2.95985 14.9742L3.88027 14.6489L3.50378 13.5835ZM7.82269 14.435C6.7385 14.435 5.7185 14.1673 4.82353 13.6949L4.29605 14.6943C5.34968 15.2504 6.55028 15.565 7.82269 15.565V14.435ZM14.2577 8C14.2577 11.554 11.3766 14.435 7.82269 14.435V15.565C12.0007 15.565 15.3877 12.178 15.3877 8H14.2577ZM7.82269 1.565C11.3766 1.565 14.2577 4.44605 14.2577 8H15.3877C15.3877 3.82197 12.0007 0.435 7.82269 0.435V1.565ZM3.88027 14.6489C3.9984 14.6072 4.14874 14.6165 4.29605 14.6943L4.82353 13.6949C4.43487 13.4898 3.95706 13.4233 3.50378 13.5835L3.88027 14.6489ZM1.02387 11.321C1.09415 11.4646 1.10101 11.6088 1.06086 11.7224L2.1263 12.0989C2.28026 11.6631 2.22467 11.2041 2.03887 10.8244L1.02387 11.321Z"
        fill="#777777" />
    <circle cx="4.35785" cy="8.03516" r="0.875" fill="#777777" />
    <circle cx="7.85785" cy="8.03516" r="0.875" fill="#777777" />
    <circle cx="11.3578" cy="8.03516" r="0.875" fill="#777777" />
</svg>
    