<svg width="14" height="14" viewBox="0 0 14 14" fill="none" xmlns="http://www.w3.org/2000/svg">
    <path
        d="M6.62729 1.71506C6.79636 1.43412 7.20365 1.43412 7.37271 1.71505L8.93073 4.30395C9.14925 4.66705 9.50567 4.926 9.91852 5.02162L12.8622 5.70337C13.1816 5.77736 13.3074 6.16471 13.0925 6.41231L11.1118 8.69409C10.834 9.01412 10.6978 9.43312 10.7345 9.85531L10.9957 12.8656C11.0241 13.1922 10.6946 13.4316 10.3927 13.3037L7.61049 12.125C7.22029 11.9597 6.77972 11.9597 6.38951 12.125L3.60733 13.3037C3.30543 13.4316 2.97592 13.1922 3.00427 12.8656L3.26552 9.85531C3.30216 9.43312 3.16602 9.01412 2.88822 8.69409L0.907489 6.41232C0.69255 6.16471 0.818411 5.77735 1.13784 5.70338L4.08147 5.02162C4.49433 4.92601 4.85075 4.66705 5.06927 4.30395L6.62729 1.71506Z"
        stroke="#6E6E6E" stroke-width="1.13" />
</svg>
    