<svg width="14" height="14" viewBox="0 0 14 14" fill="none" xmlns="http://www.w3.org/2000/svg">
    <path
        d="M6.14319 1.42372C6.53185 0.777902 7.46815 0.777901 7.85681 1.42372L9.41483 4.01261C9.55445 4.24463 9.7822 4.41009 10.046 4.47119L12.9896 5.15294C13.724 5.32301 14.0133 6.21348 13.5192 6.78269L11.5385 9.06447C11.3609 9.26896 11.2739 9.53669 11.2974 9.80646L11.5586 12.8167C11.6238 13.5676 10.8663 14.118 10.1723 13.8239L7.39009 12.6453C7.14076 12.5396 6.85924 12.5396 6.60991 12.6453L3.82773 13.8239C3.1337 14.118 2.37622 13.5676 2.44139 12.8167L2.70264 9.80646C2.72605 9.53669 2.63906 9.26896 2.46155 9.06447L0.48082 6.78269C-0.013289 6.21349 0.276042 5.32301 1.01036 5.15295L3.95399 4.47119C4.2178 4.4101 4.44555 4.24463 4.58517 4.01261L6.14319 1.42372Z"
        fill="#FFD700" />
</svg>
    