<svg width="24" height="24" viewBox="0 0 24 24" fill="none" xmlns="http://www.w3.org/2000/svg">
    <path
        d="M17.0623 12.5625C18.4085 12.5625 19.4998 13.6538 19.4998 15V15.8125C19.4998 19.0161 16.4781 22.3125 11.3748 22.3125C6.27152 22.3125 3.24982 19.0161 3.24982 15.8125V15C3.24982 13.6538 4.34112 12.5625 5.68732 12.5625H17.0623ZM17.0623 14.1875H5.68732C5.23859 14.1875 4.87482 14.5513 4.87482 15V15.8125C4.87482 18.1487 7.20207 20.6875 11.3748 20.6875C15.5476 20.6875 17.8748 18.1487 17.8748 15.8125V15C17.8748 14.5513 17.511 14.1875 17.0623 14.1875ZM11.3748 2C13.8428 2 15.8436 4.00073 15.8436 6.46875C15.8436 8.93677 13.8428 10.9375 11.3748 10.9375C8.90679 10.9375 6.90607 8.93677 6.90607 6.46875C6.90607 4.00073 8.90679 2 11.3748 2ZM11.3748 3.625C9.80426 3.625 8.53107 4.89819 8.53107 6.46875C8.53107 8.03931 9.80426 9.3125 11.3748 9.3125C12.9454 9.3125 14.2186 8.03931 14.2186 6.46875C14.2186 4.89819 12.9454 3.625 11.3748 3.625Z"
        fill="#4B4B4B" />
</svg>
    